<svg width="148" height="40" viewBox="0 0 148 40" fill="none" xmlns="http://www.w3.org/2000/svg">
<path fill-rule="evenodd" clip-rule="evenodd" d="M21.0922 0C22.1206 0 22.9543 0.825279 22.9543 1.84331V3.22465C32.364 4.14954 39.7129 12.0086 39.7129 21.5668C39.7129 25.9932 38.1369 30.0551 35.51 33.2328L37.8507 35.5499C38.5779 36.2697 38.5779 37.4369 37.8507 38.1567C37.1235 38.8766 35.9445 38.8766 35.2173 38.1567L32.8766 35.8396C29.6667 38.4399 25.5634 40 21.0921 40C16.6207 40 12.5174 38.4398 9.30734 35.8394L6.96643 38.1567C6.23924 38.8766 5.06023 38.8766 4.33304 38.1567C3.60585 37.4369 3.60585 36.2697 4.33304 35.5499L6.67399 33.2325C4.04724 30.0549 2.4713 25.993 2.4713 21.5668C2.4713 12.0085 9.82039 4.14941 19.2302 3.22463V1.84331C19.2302 0.825278 20.0638 0 21.0922 0ZM19.1107 27.1377C18.2592 26.8774 17.7821 25.9866 18.0442 25.1464L20.8648 16.105C21.1278 15.2621 22.0348 14.7898 22.889 15.051C23.7406 15.3113 24.2177 16.2021 23.9556 17.0423L21.135 26.0838C20.872 26.9266 19.965 27.3989 19.1107 27.1377ZM14.4275 18.9081C15.063 18.2911 15.073 17.2835 14.4497 16.6544C13.8229 16.0217 12.794 16.0119 12.1548 16.6324L8.01124 20.6554C7.71236 20.9455 7.71236 21.4208 8.01124 21.711L12.1548 25.7339C12.794 26.3545 13.8229 26.3446 14.4497 25.712C15.073 25.0829 15.063 24.0753 14.4275 23.4583L12.0842 21.1832L14.4275 18.9081ZM27.5729 18.9082C26.9374 18.2911 26.9275 17.2836 27.5507 16.6545C28.1775 16.0218 29.2065 16.012 29.8456 16.6325L33.9892 20.6554C34.288 20.9456 34.288 21.4209 33.9892 21.7111L29.8456 25.734C29.2065 26.3545 28.1775 26.3447 27.5507 25.712C26.9275 25.0829 26.9374 24.0754 27.5729 23.4583L29.9162 21.1833L27.5729 18.9082Z" fill="url(#paint0_linear_74_3699)"/>
<path d="M32.4376 1.65684C32.9433 0.769411 34.0849 0.450696 34.9406 1.01692C37.6379 2.80175 39.9641 5.09316 41.7803 7.75371C42.3566 8.59789 42.0405 9.72952 41.1466 10.2346C40.2539 10.7391 39.1237 10.4266 38.5372 9.59099C37.0678 7.49739 35.2237 5.68091 33.101 4.23669C32.2539 3.66033 31.9326 2.5431 32.4376 1.65684Z" fill="url(#paint1_linear_74_3699)"/>
<path d="M0.290722 7.75378C-0.285575 8.59797 0.0305844 9.7296 0.924456 10.2347C1.81716 10.7391 2.94739 10.4267 3.53389 9.59106C5.00328 7.49743 6.8474 5.68092 8.97012 4.23668C9.81724 3.66033 10.1386 2.54309 9.63355 1.65683C9.12785 0.769407 7.9863 0.45069 7.1306 1.01691C4.43326 2.80175 2.10702 5.09319 0.290722 7.75378Z" fill="url(#paint2_linear_74_3699)"/>
<path d="M50.4772 32.8627C50.7345 33.153 51.0869 33.2982 51.5345 33.2982C53.5931 33.2982 55.5119 33.0525 57.2908 32.5612C59.0698 32.07 60.6865 31.4056 62.141 30.5682C64.0765 29.4517 65.7156 28.1174 67.0582 26.5655C68.412 25.0023 69.4357 23.3666 70.1294 21.6583C70.8343 19.9388 71.1867 18.3031 71.1867 16.7511C71.1867 15.2103 70.879 13.8146 70.2637 12.5641C69.6595 11.3136 68.7309 10.3255 67.4778 9.59971C66.2359 8.8628 64.6527 8.49434 62.7284 8.49434C60.9159 8.49434 59.1649 8.76789 57.4754 9.315C55.786 9.8621 54.3036 10.5543 53.0281 11.3918C51.7414 12.2403 50.7177 13.1391 49.9569 14.0882C49.2073 15.0372 48.8325 15.9193 48.8325 16.7344C48.8325 17.5829 49.3136 18.0072 50.2758 18.0072C50.7904 18.0072 51.238 17.8844 51.6184 17.6388C51.9988 17.3931 52.3568 17.0749 52.6924 16.6841C53.084 16.204 53.4141 15.7574 53.6826 15.3443C53.9623 14.9312 54.3595 14.4455 54.8742 13.8872C55.4112 13.3959 56.0881 12.9549 56.9048 12.5641C57.7216 12.1622 58.6111 11.8439 59.5733 11.6095C60.5466 11.375 61.5144 11.2578 62.4766 11.2578C64.043 11.2578 65.201 11.7379 65.9506 12.6981C66.7002 13.6583 67.075 14.8865 67.075 16.3827C67.075 17.6667 66.7282 19.0735 66.0345 20.6032C65.352 22.1216 64.401 23.562 63.1815 24.9241C61.9508 26.3086 60.5299 27.481 58.9187 28.4412C57.3076 29.4014 55.6182 29.9709 53.8504 30.1495C54.5665 29.1781 55.3049 28.0895 56.0657 26.8837C56.8377 25.6666 57.5985 24.4105 58.3481 23.1154C59.1537 21.6974 59.7802 20.5864 60.2278 19.7825C60.6753 18.9674 61.0781 18.2305 61.4361 17.5718C61.8501 16.8683 62.0571 16.1873 62.0571 15.5285C62.0571 15.1266 61.9508 14.7804 61.7382 14.4901C61.5256 14.1998 61.1676 14.0547 60.6641 14.0547C60.3508 14.0547 59.9033 14.2166 59.3215 14.5404C58.7509 14.853 58.1747 15.4615 57.5929 16.3659L50.6953 30.049C50.5163 30.3058 50.3709 30.585 50.259 30.8864C50.1471 31.1879 50.0912 31.5005 50.0912 31.8243C50.0912 32.2374 50.2198 32.5836 50.4772 32.8627Z" fill="url(#paint3_linear_74_3699)"/>
<path d="M114.301 15.4783C114.021 15.4783 113.702 15.4224 113.344 15.3108C112.986 15.188 112.807 14.9367 112.807 14.5571C112.807 14.412 112.886 14.2054 113.042 13.9374C113.21 13.6695 113.372 13.3959 113.529 13.1168C113.685 12.8265 113.764 12.592 113.764 12.4134C113.764 12.0338 113.495 11.7546 112.958 11.576C112.421 11.4085 111.521 11.3248 110.256 11.3248C108.455 11.3918 106.849 11.5257 105.44 11.7267C104.03 11.9277 102.749 12.1901 101.597 12.5139C100.847 12.726 100.108 12.9549 99.3812 13.2005C98.654 13.435 97.9212 13.6862 97.1827 13.9542C96.8023 14.0993 96.4163 14.2389 96.0247 14.3729C94.1555 15.134 92.6335 15.915 91.7025 16.3928C91.241 16.6296 90.9239 16.7923 90.783 16.8404L90.5648 16.9074C90.453 16.9298 90.3858 16.9409 90.3635 16.9409C90.0166 16.9409 89.7257 16.7958 89.4908 16.5055C89.267 16.204 89.1551 15.8802 89.1551 15.5341C90.7099 13.6665 96.2452 11.1074 98.6932 10.3199C100.371 9.7951 102.234 9.35966 104.282 9.01353C106.329 8.66741 108.388 8.49434 110.458 8.49434C112.852 8.49434 114.609 8.85164 115.727 9.56622C116.846 10.2808 117.417 11.1852 117.439 12.2794C117.439 12.5585 117.305 12.9549 117.036 13.4685C116.768 13.9821 116.399 14.4455 115.929 14.8586C115.459 15.2717 114.916 15.4783 114.301 15.4783Z" fill="url(#paint4_linear_74_3699)"/>
<path d="M94.85 33.9011C94.492 33.9011 94.1899 33.8062 93.9437 33.6164C93.6976 33.4377 93.5745 33.1697 93.5745 32.8125C93.5745 32.6896 93.5857 32.5557 93.6081 32.4105C93.6416 32.2542 93.7032 32.0867 93.7927 31.9081C94.643 30.1551 95.4933 28.4691 96.3436 26.8502C97.1939 25.2312 98.0107 23.7183 98.7939 22.3115C99.1854 21.608 99.5658 20.9381 99.9351 20.3017C100.315 19.6541 100.679 19.04 101.026 18.4594C102.055 16.7734 102.956 15.4336 103.728 14.4399C104.5 13.435 105.031 12.9326 105.322 12.9326C105.714 12.9326 106.005 13.0442 106.195 13.2675C106.385 13.4908 106.48 13.7532 106.48 14.0547C106.48 14.278 106.419 14.5236 106.296 14.7916L101.748 24.1035C101.255 25.1307 100.741 26.1858 100.204 27.2689C99.6665 28.3407 99.1799 29.301 98.7435 30.1495C98.3184 30.9869 98.0107 31.5619 97.8205 31.8746C97.4848 32.5557 97.0317 33.0637 96.4611 33.3986C95.9017 33.7336 95.3646 33.9011 94.85 33.9011Z" fill="url(#paint5_linear_74_3699)"/>
<path d="M109.853 19.9332C110.133 20.1454 110.62 20.2514 111.314 20.2514C112.063 20.2514 112.6 19.9946 112.925 19.481C113.26 18.9674 113.428 18.4985 113.428 18.0742C113.428 17.6946 113.299 17.382 113.042 17.1363C112.785 16.8795 112.332 16.7511 111.683 16.7511C110.922 16.7511 110.346 17.0079 109.954 17.5215C109.574 18.024 109.384 18.5376 109.384 19.0623C109.417 19.4196 109.574 19.7099 109.853 19.9332Z" fill="url(#paint6_linear_74_3699)"/>
<path fill-rule="evenodd" clip-rule="evenodd" d="M105.054 33.2814C105.58 33.7392 106.296 33.9681 107.202 33.9681C108.052 33.9681 108.897 33.7559 109.736 33.3316C110.176 33.1123 110.609 32.86 111.037 32.575C110.975 32.8053 110.944 32.985 110.944 33.1139C110.944 33.4712 111.062 33.7783 111.297 34.0351C111.532 34.2919 111.851 34.4203 112.253 34.4203C112.746 34.4203 113.148 34.1914 113.462 33.7336C113.786 33.2758 114.06 32.7566 114.284 32.176C114.508 31.5843 114.726 31.093 114.939 30.7022C115.285 30.1551 115.666 29.5466 116.08 28.8767C116.505 28.2068 116.992 27.5536 117.54 26.9172C118.066 26.2919 118.642 25.7783 119.268 25.3763C119.895 24.9632 120.538 24.7567 121.198 24.7567C121.59 24.7567 121.786 24.9632 121.786 25.3763C121.786 25.5438 121.752 25.7113 121.685 25.8788C121.618 26.0351 121.528 26.2026 121.417 26.3812C121.003 27.0623 120.499 27.8104 119.906 28.6255C119.324 29.4405 118.81 30.2612 118.362 31.0874C117.915 31.9136 117.691 32.6896 117.691 33.4154C117.713 33.7057 117.864 33.9457 118.144 34.1356C118.435 34.3254 118.726 34.4203 119.017 34.4203C119.509 34.4203 119.912 34.1914 120.225 33.7336C120.55 33.2758 120.824 32.7566 121.047 32.176C121.271 31.5843 121.489 31.093 121.702 30.7022C122.049 30.1551 122.429 29.5466 122.843 28.8767C123.268 28.2068 123.755 27.5536 124.303 26.9172C124.829 26.2919 125.405 25.7783 126.032 25.3763C126.658 24.9632 127.302 24.7567 127.962 24.7567C128.353 24.7567 128.549 24.9632 128.549 25.3763C128.549 25.5438 128.516 25.7113 128.448 25.8788C128.381 26.0351 128.292 26.2026 128.18 26.3812C127.878 26.8613 127.486 27.3917 127.005 27.9723C126.535 28.5417 126.11 29.1614 125.73 29.8313C125.36 30.4901 125.176 31.1991 125.176 31.9583C125.176 32.8069 125.428 33.4266 125.931 33.8173C126.446 34.2081 127.117 34.4035 127.945 34.4035C128.795 34.4035 129.657 34.1914 130.529 33.7671C131.402 33.3428 132.264 32.7957 133.114 32.1258C133.248 32.0195 133.382 31.9123 133.514 31.8044C133.542 31.8729 133.57 31.9409 133.601 32.0086C133.936 32.7231 134.417 33.3037 135.044 33.7503C135.682 34.1858 136.448 34.4035 137.343 34.4035C138.496 34.4035 139.676 34.1858 140.884 33.7503C142.093 33.3149 143.189 32.8236 144.174 32.2765C144.979 31.8187 145.734 31.3442 146.439 30.8529C147.144 30.3617 147.569 30.0435 147.715 29.8983C147.86 29.7197 147.944 29.5633 147.966 29.4294C147.989 29.2842 148 29.1614 148 29.0609C148 28.9269 147.944 28.7594 147.832 28.5585C147.731 28.3463 147.547 28.2402 147.278 28.2402C147.211 28.2402 147.133 28.2458 147.043 28.257C146.965 28.2682 146.876 28.3072 146.775 28.3742C146.663 28.4189 146.311 28.6199 145.718 28.9772C145.125 29.3345 144.414 29.7141 143.586 30.116C142.758 30.5291 141.897 30.8976 141.002 31.2214C140.107 31.534 139.273 31.6903 138.501 31.6903C137.505 31.6903 136.946 31.3442 136.823 30.652C138.345 30.0937 139.609 29.541 140.616 28.9939C141.634 28.4356 142.445 27.8885 143.049 27.3526C143.653 26.8278 144.078 26.3086 144.325 25.795C144.571 25.2814 144.694 24.7902 144.694 24.3212C144.694 23.5285 144.464 22.9088 144.006 22.4622C143.547 22.0156 142.853 21.7923 141.925 21.7923C140.638 21.7923 139.447 22.0658 138.35 22.6129C137.265 23.1489 136.331 23.8299 135.547 24.6562C134.764 25.4824 134.16 26.3477 133.735 27.2521C133.329 28.1288 133.122 28.9247 133.114 29.6401C132.952 29.772 132.784 29.9027 132.61 30.0323C132.085 30.4342 131.548 30.7748 130.999 31.0539C130.462 31.3219 129.959 31.4559 129.489 31.4559C129.243 31.4559 129.041 31.4224 128.885 31.3554C128.739 31.2884 128.667 31.1321 128.667 30.8864C128.667 30.518 128.795 30.1216 129.053 29.6973C129.321 29.273 129.612 28.8767 129.925 28.5082C130.25 28.1398 130.49 27.8606 130.647 27.6708C131.061 27.1684 131.419 26.6157 131.721 26.0128C132.034 25.4098 132.191 24.7734 132.191 24.1035C132.191 23.2549 131.911 22.6632 131.352 22.3282C130.792 21.9821 130.138 21.809 129.388 21.809C128.404 21.809 127.565 22.0323 126.871 22.4789C126.177 22.9144 125.567 23.3945 125.042 23.9193C124.997 23.16 124.74 22.6185 124.27 22.2947C123.8 21.9709 123.251 21.809 122.625 21.809C121.786 21.809 121.053 21.9597 120.426 22.2612C119.8 22.5627 119.246 22.9311 118.765 23.3666C118.295 23.7909 117.859 24.1872 117.456 24.5557C117.59 24.1984 117.657 23.8802 117.657 23.6011C117.657 23.2103 117.545 22.9144 117.322 22.7134C117.109 22.5013 116.863 22.3952 116.583 22.3952C116.259 22.3952 115.929 22.5124 115.593 22.7469C115.269 22.9814 115.006 23.3387 114.804 23.8188C114.558 24.3994 114.223 25.1475 113.797 26.063C113.404 26.9339 112.995 27.83 112.571 28.7514C112.264 29.0301 111.94 29.3063 111.599 29.5801C111.107 29.9932 110.586 30.3393 110.038 30.6185C109.501 30.8976 109.009 31.0372 108.561 31.0372C108.282 31.0372 108.063 30.9925 107.907 30.9032C107.761 30.8027 107.689 30.6017 107.689 30.3003C107.689 29.9318 107.778 29.5131 107.957 29.0442C108.136 28.564 108.343 28.0895 108.578 27.6206C108.813 27.1516 109.009 26.7553 109.165 26.4315C109.356 26.0407 109.54 25.6555 109.719 25.2759C109.898 24.8851 110.111 24.4664 110.357 24.0198C110.413 23.9193 110.446 23.8188 110.458 23.7183C110.48 23.6178 110.497 23.5173 110.508 23.4168C110.508 22.9925 110.351 22.6464 110.038 22.3784C109.736 22.0993 109.372 21.9597 108.947 21.9597C108.69 21.9597 108.438 22.0267 108.192 22.1607C107.946 22.2947 107.728 22.518 107.538 22.8306L106.967 24.003C106.81 24.3156 106.659 24.6227 106.514 24.9241C106.38 25.2256 106.284 25.4489 106.228 25.5941C106.049 26.0407 105.803 26.5655 105.49 27.1684C105.188 27.7601 104.908 28.3966 104.651 29.0777C104.405 29.7476 104.282 30.4231 104.282 31.1042C104.282 32.0867 104.539 32.8125 105.054 33.2814ZM136.571 28.7259C137.298 28.3463 138.037 27.9053 138.786 27.4029C139.547 26.8892 140.123 26.5152 140.515 26.2807C141.041 25.9458 141.388 25.6499 141.556 25.3931C141.746 25.114 141.841 24.8795 141.841 24.6897C141.841 24.5222 141.785 24.3882 141.673 24.2877C141.572 24.1872 141.455 24.1258 141.321 24.1035L141.17 24.0867H141.019C140.403 24.0867 139.833 24.2654 139.307 24.6227C138.792 24.9688 138.356 25.4043 137.998 25.929C137.617 26.4761 137.31 26.9897 137.075 27.4698C136.851 27.95 136.683 28.3687 136.571 28.7259Z" fill="url(#paint7_linear_74_3699)"/>
<path fill-rule="evenodd" clip-rule="evenodd" d="M83.3036 32.243C83.8966 32.8013 84.5847 33.0804 85.3679 33.0804C86.1734 33.0804 86.9454 32.8292 87.6839 32.3268C89.2423 31.2822 90.5622 29.4911 91.5606 27.922C91.7206 27.6706 91.8736 27.4247 92.0223 27.186C92.3329 26.6869 92.625 26.2178 92.92 25.795C93.3675 25.1698 93.7367 24.5724 94.0276 24.003C94.3185 23.4336 94.464 22.8362 94.464 22.211C94.464 21.7978 94.3689 21.4461 94.1787 21.1558C93.9885 20.8544 93.664 20.7036 93.2053 20.7036C92.8137 20.7036 92.4221 20.9884 92.0305 21.5578C91.6389 22.1161 91.2417 22.7916 90.839 23.5843C90.425 24.3882 89.9775 25.2312 89.4964 26.1133C89.0265 26.9842 88.523 27.6987 87.9859 28.257C87.5608 28.8264 87.1692 29.273 86.8112 29.5968C86.4531 29.9206 86.1287 30.0825 85.8378 30.0825C85.7035 30.0825 85.5972 29.943 85.5189 29.6638C85.4406 29.3735 85.4015 29.1446 85.4015 28.9772C85.4015 28.2961 85.5189 27.5368 85.7539 26.6994C85.9888 25.862 86.2574 25.0191 86.5594 24.1705C86.8727 23.3108 87.1412 22.518 87.365 21.7923C87.4097 21.7141 87.4321 21.608 87.4321 21.4741C87.4321 21.1838 87.2923 20.9437 87.0126 20.7539C86.7328 20.5641 86.4475 20.4692 86.1567 20.4692C85.8322 20.4692 85.4965 20.5752 85.1497 20.7874C84.8141 20.9884 84.5344 21.3233 84.3106 21.7923C84.1428 22.2947 83.9078 23.0093 83.6057 23.936C83.3036 24.8516 83.0295 25.8341 82.7834 26.8837C82.7328 27.0972 82.6874 27.3074 82.6471 27.5144C82.5741 27.5579 82.4965 27.6045 82.4142 27.6541C81.8212 28.0114 81.1107 28.391 80.2828 28.7929C79.4549 29.2061 78.5934 29.5745 77.6983 29.8983C76.8032 30.2109 75.9697 30.3673 75.1977 30.3673C74.202 30.3673 73.6425 30.0211 73.5195 29.3289C75.0411 28.7706 76.3054 28.2179 77.3123 27.6708C78.3304 27.1126 79.1416 26.5655 79.7458 26.0295C80.3499 25.5047 80.7751 24.9856 81.0212 24.472C81.2674 23.9583 81.3904 23.4671 81.3904 22.9981C81.3904 22.2054 81.1611 21.5857 80.7024 21.1391C80.2436 20.6925 79.55 20.4692 78.6213 20.4692C77.3347 20.4692 76.1431 20.7427 75.0467 21.2898C73.9614 21.8258 73.0272 22.5069 72.244 23.3331C71.4608 24.1593 70.8567 25.0246 70.4315 25.929C70.0175 26.8223 69.8106 27.6317 69.8106 28.3575C69.8106 29.1837 69.9728 29.9597 70.2972 30.6855C70.6329 31.4 71.114 31.9806 71.7405 32.4273C72.3783 32.8627 73.1447 33.0804 74.0397 33.0804C75.1921 33.0804 76.3725 32.8627 77.5808 32.4273C78.7892 31.9918 79.8856 31.5005 80.8702 30.9534C81.4092 30.6471 81.9256 30.3333 82.4195 30.012C82.462 30.9742 82.7567 31.7178 83.3036 32.243ZM73.2677 27.4029C73.995 27.0232 74.7334 26.5822 75.483 26.0798C76.2438 25.5662 76.82 25.1921 77.2116 24.9576C77.7375 24.6227 78.0843 24.3268 78.2521 24.07C78.4423 23.7909 78.5374 23.5564 78.5374 23.3666C78.5374 23.1991 78.4815 23.0651 78.3696 22.9646C78.2689 22.8641 78.1514 22.8027 78.0172 22.7804L77.8661 22.7637H77.7151C77.0997 22.7637 76.5291 22.9423 76.0033 23.2996C75.4886 23.6457 75.0523 24.0812 74.6942 24.6059C74.3138 25.153 74.0062 25.6666 73.7712 26.1467C73.5474 26.6269 73.3796 27.0456 73.2677 27.4029Z" fill="url(#paint8_linear_74_3699)"/>
<defs>
<linearGradient id="paint0_linear_74_3699" x1="0" y1="0" x2="147.66" y2="41.2181" gradientUnits="userSpaceOnUse">
<stop stop-color="#4C79FF"/>
<stop offset="1" stop-color="#023E99"/>
</linearGradient>
<linearGradient id="paint1_linear_74_3699" x1="0" y1="0" x2="147.66" y2="41.2181" gradientUnits="userSpaceOnUse">
<stop stop-color="#4C79FF"/>
<stop offset="1" stop-color="#023E99"/>
</linearGradient>
<linearGradient id="paint2_linear_74_3699" x1="0" y1="0" x2="147.66" y2="41.2181" gradientUnits="userSpaceOnUse">
<stop stop-color="#4C79FF"/>
<stop offset="1" stop-color="#023E99"/>
</linearGradient>
<linearGradient id="paint3_linear_74_3699" x1="0" y1="0" x2="147.66" y2="41.2181" gradientUnits="userSpaceOnUse">
<stop stop-color="#4C79FF"/>
<stop offset="1" stop-color="#023E99"/>
</linearGradient>
<linearGradient id="paint4_linear_74_3699" x1="0" y1="0" x2="147.66" y2="41.2181" gradientUnits="userSpaceOnUse">
<stop stop-color="#4C79FF"/>
<stop offset="1" stop-color="#023E99"/>
</linearGradient>
<linearGradient id="paint5_linear_74_3699" x1="0" y1="0" x2="147.66" y2="41.2181" gradientUnits="userSpaceOnUse">
<stop stop-color="#4C79FF"/>
<stop offset="1" stop-color="#023E99"/>
</linearGradient>
<linearGradient id="paint6_linear_74_3699" x1="0" y1="0" x2="147.66" y2="41.2181" gradientUnits="userSpaceOnUse">
<stop stop-color="#4C79FF"/>
<stop offset="1" stop-color="#023E99"/>
</linearGradient>
<linearGradient id="paint7_linear_74_3699" x1="0" y1="0" x2="147.66" y2="41.2181" gradientUnits="userSpaceOnUse">
<stop stop-color="#4C79FF"/>
<stop offset="1" stop-color="#023E99"/>
</linearGradient>
<linearGradient id="paint8_linear_74_3699" x1="0" y1="0" x2="147.66" y2="41.2181" gradientUnits="userSpaceOnUse">
<stop stop-color="#4C79FF"/>
<stop offset="1" stop-color="#023E99"/>
</linearGradient>
</defs>
</svg>
