<svg width="132" height="100" viewBox="0 0 132 100" fill="none" xmlns="http://www.w3.org/2000/svg">
<g clip-path="url(#clip0_74_3697)">
<path fill-rule="evenodd" clip-rule="evenodd" d="M66.0755 0C67.4444 0 68.5541 1.11413 68.5541 2.48847V4.35328C81.0791 5.60188 90.8611 16.2116 90.8611 29.1152C90.8611 35.0908 88.7633 40.5744 85.2667 44.8643L88.3824 47.9924C89.3503 48.9642 89.3503 50.5398 88.3824 51.5116C87.4144 52.4834 85.8451 52.4834 84.8771 51.5116L81.7615 48.3835C77.4887 51.8939 72.027 54 66.0753 54C60.1235 54 54.6616 51.8938 50.3888 48.3832L47.2729 51.5116C46.3049 52.4834 44.7356 52.4834 43.7676 51.5116C42.7997 50.5398 42.7997 48.9642 43.7676 47.9924L46.8836 44.8639C43.3872 40.5741 41.2895 35.0906 41.2895 29.1152C41.2895 16.2115 51.0717 5.60171 63.5969 4.35324V2.48847C63.5969 1.11413 64.7066 0 66.0755 0ZM63.438 36.636C62.3045 36.2845 61.6694 35.0819 62.0183 33.9476L65.7728 21.7417C66.1228 20.6038 67.3301 19.9662 68.4672 20.3188C69.6006 20.6703 70.2357 21.8729 69.8868 23.0072L66.1324 35.2131C65.7823 36.351 64.575 36.9885 63.438 36.636ZM57.2042 25.5259C58.0501 24.6929 58.0633 23.3327 57.2337 22.4834C56.3994 21.6294 55.0298 21.6161 54.179 22.4538L48.6636 27.8848C48.2658 28.2765 48.2658 28.9181 48.6636 29.3098L54.179 34.7408C55.0298 35.5785 56.3994 35.5652 57.2337 34.7112C58.0633 33.8619 58.0501 32.5017 57.2042 31.6687L54.085 28.5973L57.2042 25.5259ZM74.7018 25.526C73.8558 24.693 73.8426 23.3328 74.6723 22.4835C75.5066 21.6295 76.8762 21.6162 77.7269 22.4539L83.2423 27.8849C83.6402 28.2766 83.6402 28.9182 83.2423 29.3099L77.7269 34.7409C76.8762 35.5786 75.5066 35.5653 74.6723 34.7113C73.8426 33.862 73.8558 32.5018 74.7018 31.6688L77.8209 28.5974L74.7018 25.526Z" fill="url(#paint0_linear_74_3697)"/>
<path d="M81.1771 2.23674C81.8502 1.03871 83.3697 0.60844 84.5087 1.37284C88.0991 3.78236 91.1954 6.87576 93.613 10.4675C94.3801 11.6072 93.9593 13.1349 92.7695 13.8167C91.5812 14.4977 90.0768 14.076 89.2961 12.9478C87.3403 10.1215 84.8856 7.66923 82.0602 5.71953C80.9326 4.94145 80.5049 3.43318 81.1771 2.23674Z" fill="url(#paint1_linear_74_3697)"/>
<path d="M38.387 10.4676C37.6199 11.6073 38.0407 13.135 39.2305 13.8168C40.4188 14.4978 41.9232 14.0761 42.7039 12.9479C44.6598 10.1215 47.1144 7.66924 49.94 5.71952C51.0675 4.94145 51.4953 3.43318 50.823 2.23673C50.1499 1.0387 48.6304 0.608432 47.4914 1.37282C43.901 3.78237 40.8046 6.87581 38.387 10.4676Z" fill="url(#paint2_linear_74_3697)"/>
<path d="M2.1892 97.8973C2.53173 98.2892 3.00085 98.4851 3.59655 98.4851C6.33677 98.4851 8.89084 98.1535 11.2588 97.4903C13.6267 96.8271 15.7786 95.9302 17.7147 94.7997C20.2911 93.2924 22.4728 91.4912 24.2599 89.396C26.0619 87.2857 27.4246 85.0775 28.3479 82.7713C29.2862 80.45 29.7553 78.2418 29.7553 76.1466C29.7553 74.0665 29.3457 72.1824 28.5267 70.4942C27.7225 68.806 26.4864 67.472 24.8184 66.4922C23.1653 65.4974 21.058 65 18.4965 65C16.0839 65 13.7533 65.3693 11.5045 66.1079C9.25571 66.8465 7.28245 67.781 5.5847 68.9115C3.87206 70.0571 2.50939 71.2705 1.4967 72.5517C0.4989 73.8329 0 75.0237 0 76.124C0 77.2696 0.640379 77.8424 1.92114 77.8424C2.60619 77.8424 3.20189 77.6766 3.70824 77.345C4.21459 77.0134 4.69115 76.5838 5.13792 76.0562C5.65916 75.4081 6.09849 74.8051 6.45591 74.2474C6.82823 73.6897 7.35691 73.034 8.04197 72.2804C8.75681 71.6171 9.65781 71.0218 10.745 70.4942C11.8321 69.9516 13.0161 69.522 14.2968 69.2054C15.5925 68.8889 16.8807 68.7306 18.1614 68.7306C20.2464 68.7306 21.7878 69.3788 22.7856 70.6751C23.7834 71.9714 24.2823 73.6294 24.2823 75.6492C24.2823 77.3826 23.8206 79.2819 22.8973 81.3469C21.9888 83.3969 20.723 85.3413 19.0997 87.1802C17.4615 89.0493 15.5701 90.632 13.4256 91.9283C11.2811 93.2246 9.03232 93.9933 6.6793 94.2345C7.63242 92.9231 8.61533 91.4535 9.62802 89.8256C10.6556 88.1826 11.6683 86.4869 12.6661 84.7384C13.7384 82.8241 14.5723 81.3243 15.168 80.239C15.7637 79.1387 16.2999 78.1438 16.7764 77.2545C17.3275 76.3049 17.603 75.3854 17.603 74.4961C17.603 73.9535 17.4615 73.4862 17.1785 73.0943C16.8956 72.7024 16.419 72.5065 15.7489 72.5065C15.3319 72.5065 14.7362 72.725 13.9618 73.1621C13.2022 73.5842 12.4353 74.4057 11.6609 75.6266L2.47961 94.0988C2.24133 94.4455 2.04772 94.8223 1.8988 95.2293C1.74987 95.6363 1.67541 96.0584 1.67541 96.4955C1.67541 97.0532 1.84667 97.5205 2.1892 97.8973Z" fill="url(#paint3_linear_74_3697)"/>
<path d="M87.1437 74.4283C86.7714 74.4283 86.3469 74.3529 85.8704 74.2022C85.3938 74.0364 85.1555 73.6972 85.1555 73.1848C85.1555 72.9888 85.2598 72.7099 85.4683 72.3482C85.6917 71.9864 85.9076 71.6171 86.1161 71.2403C86.3246 70.8484 86.4288 70.5319 86.4288 70.2907C86.4288 69.7782 86.0714 69.4014 85.3566 69.1602C84.6417 68.9341 83.4429 68.8211 81.76 68.8211C79.3623 68.9115 77.2253 69.0924 75.3488 69.3637C73.4723 69.635 71.7672 69.9892 70.2332 70.4264C69.2354 70.7127 68.2525 71.0218 67.2845 71.3534C66.3165 71.6699 65.341 72.009 64.3581 72.3708C63.8518 72.5667 63.338 72.7552 62.8167 72.9361C60.3286 73.9635 58.3027 75.018 57.0635 75.6629L57.0626 75.6634C56.4482 75.9831 56.0271 76.2023 55.8396 76.2672L55.5492 76.3577C55.4002 76.3878 55.3109 76.4029 55.2811 76.4029C54.8194 76.4029 54.4322 76.2069 54.1195 75.815C53.8216 75.4081 53.6727 74.9709 53.6727 74.5037C55.7422 71.9824 63.1102 68.5276 66.3686 67.4645C68.6025 66.756 71.0821 66.1682 73.8074 65.7009C76.5328 65.2336 79.273 65 82.0281 65C85.2151 65 87.5532 65.4823 89.0425 66.447C90.5317 67.4117 91.2913 68.6326 91.321 70.1098C91.321 70.4866 91.1423 71.0218 90.7849 71.7151C90.4275 72.4085 89.936 73.034 89.3106 73.5917C88.6851 74.1494 87.9628 74.4283 87.1437 74.4283Z" fill="url(#paint4_linear_74_3697)"/>
<path d="M61.253 99.2991C60.7765 99.2991 60.3744 99.171 60.0467 98.9147C59.7191 98.6736 59.5553 98.3118 59.5553 97.8295C59.5553 97.6637 59.5702 97.4828 59.5999 97.2868C59.6446 97.0758 59.7265 96.8497 59.8457 96.6085C60.9775 94.242 62.1093 91.966 63.2412 89.7804C64.373 87.5947 65.4602 85.5523 66.5026 83.6531C67.0239 82.7035 67.5302 81.7991 68.0217 80.9399C68.528 80.0657 69.012 79.2366 69.4737 78.4528C70.8438 76.1768 72.0427 74.368 73.0702 73.0265C74.0978 71.6699 74.8052 70.9916 75.1924 70.9916C75.7137 70.9916 76.1009 71.1423 76.354 71.4438C76.6072 71.7453 76.7338 72.0995 76.7338 72.5065C76.7338 72.8079 76.6519 73.1395 76.4881 73.5013L70.4343 86.0723C69.779 87.4591 69.0939 88.8835 68.3791 90.3456C67.6643 91.7926 67.0164 93.0889 66.4356 94.2345C65.8697 95.365 65.4602 96.1413 65.207 96.5633C64.7602 97.4828 64.1571 98.1686 63.3975 98.6208C62.6529 99.073 61.9381 99.2991 61.253 99.2991Z" fill="url(#paint5_linear_74_3697)"/>
<path d="M81.2239 80.4425C81.5962 80.7289 82.244 80.8721 83.1674 80.8721C84.1652 80.8721 84.88 80.5254 85.3119 79.832C85.7587 79.1387 85.9821 78.5056 85.9821 77.9328C85.9821 77.4203 85.8108 76.9983 85.4683 76.6667C85.1258 76.32 84.5226 76.1466 83.6588 76.1466C82.6461 76.1466 81.8792 76.4933 81.3579 77.1867C80.8516 77.865 80.5984 78.5584 80.5984 79.2668C80.6431 79.7491 80.8516 80.141 81.2239 80.4425Z" fill="url(#paint6_linear_74_3697)"/>
<path fill-rule="evenodd" clip-rule="evenodd" d="M74.835 98.4625C75.535 99.0805 76.4881 99.3895 77.6944 99.3895C78.8262 99.3895 79.9506 99.1031 81.0675 98.5304C81.6528 98.2342 82.2301 97.8937 82.7994 97.5089C82.7171 97.8198 82.6759 98.0623 82.6759 98.2364C82.6759 98.7188 82.8323 99.1333 83.1451 99.48C83.4578 99.8267 83.8822 100 84.4184 100C85.0736 100 85.6098 99.691 86.0267 99.073C86.4586 98.455 86.8235 97.7541 87.1214 96.9703C87.4192 96.1714 87.7096 95.5082 87.9926 94.9806C88.4542 94.242 88.9606 93.4205 89.5116 92.5162C90.0775 91.6118 90.7253 90.73 91.4551 89.8708C92.155 89.0267 92.922 88.3333 93.756 87.7907C94.59 87.233 95.4463 86.9541 96.3249 86.9541C96.8462 86.9541 97.1068 87.233 97.1068 87.7907C97.1068 88.0168 97.0621 88.2429 96.9728 88.469C96.8834 88.68 96.7643 88.9061 96.6153 89.1473C96.0643 90.0667 95.3942 91.0767 94.6049 92.177C93.8304 93.2773 93.1454 94.3852 92.5497 95.5006C91.954 96.6161 91.6561 97.6637 91.6561 98.6434C91.6859 99.0353 91.887 99.3594 92.2593 99.6156C92.6465 99.8719 93.0337 100 93.4209 100C94.0762 100 94.6123 99.691 95.0293 99.073C95.4612 98.455 95.826 97.7541 96.1239 96.9703C96.4217 96.1714 96.7122 95.5082 96.9951 94.9806C97.4568 94.242 97.9631 93.4205 98.5142 92.5162C99.0801 91.6118 99.7279 90.73 100.458 89.8708C101.158 89.0267 101.925 88.3333 102.759 87.7907C103.593 87.233 104.449 86.9541 105.327 86.9541C105.849 86.9541 106.109 87.233 106.109 87.7907C106.109 88.0168 106.065 88.2429 105.975 88.469C105.886 88.68 105.767 88.9061 105.618 89.1473C105.216 89.7954 104.695 90.5114 104.054 91.2952C103.429 92.064 102.863 92.9005 102.356 93.8049C101.865 94.6942 101.619 95.6514 101.619 96.6764C101.619 97.8219 101.954 98.6585 102.624 99.1861C103.31 99.7136 104.203 99.9774 105.305 99.9774C106.437 99.9774 107.584 99.691 108.745 99.1182C109.907 98.5454 111.054 97.8068 112.185 96.9025C112.365 96.7589 112.542 96.6143 112.718 96.4685C112.755 96.561 112.793 96.6529 112.833 96.7442C113.28 97.7089 113.92 98.4927 114.754 99.0956C115.603 99.6835 116.623 99.9774 117.815 99.9774C119.349 99.9774 120.92 99.6835 122.528 99.0956C124.137 98.5078 125.596 97.8445 126.907 97.1059C127.979 96.4879 128.984 95.8473 129.922 95.1841C130.861 94.5209 131.427 94.0913 131.62 93.8953C131.814 93.6542 131.926 93.4432 131.955 93.2623C131.985 93.0663 132 92.9005 132 92.7649C132 92.584 131.926 92.3579 131.777 92.0866C131.643 91.8002 131.397 91.657 131.039 91.657C130.95 91.657 130.846 91.6645 130.727 91.6796C130.622 91.6947 130.503 91.7474 130.369 91.8379C130.22 91.8981 129.751 92.1695 128.962 92.6518C128.173 93.1342 127.227 93.6466 126.125 94.1893C125.023 94.747 123.876 95.2444 122.685 95.6815C121.493 96.1036 120.384 96.3146 119.356 96.3146C118.031 96.3146 117.286 95.8473 117.122 94.9128C119.148 94.1591 120.831 93.413 122.171 92.6744C123.526 91.9208 124.606 91.1822 125.41 90.4587C126.214 89.7502 126.78 89.0493 127.108 88.3559C127.435 87.6626 127.599 86.9994 127.599 86.3663C127.599 85.2961 127.294 84.4595 126.683 83.8566C126.073 83.2537 125.149 82.9522 123.913 82.9522C122.201 82.9522 120.615 83.3215 119.155 84.0601C117.711 84.7836 116.467 85.7031 115.425 86.8185C114.382 87.9339 113.578 89.1021 113.012 90.323C112.471 91.5065 112.196 92.581 112.186 93.5467C111.969 93.7248 111.746 93.9013 111.515 94.0762C110.815 94.6189 110.101 95.0786 109.371 95.4554C108.656 95.8172 107.986 95.9981 107.36 95.9981C107.033 95.9981 106.765 95.9528 106.556 95.8624C106.363 95.772 106.266 95.5609 106.266 95.2293C106.266 94.7319 106.437 94.1968 106.78 93.624C107.137 93.0512 107.524 92.5162 107.941 92.0187C108.373 91.5213 108.693 91.1445 108.902 90.8882C109.453 90.2099 109.929 89.4638 110.331 88.6499C110.748 87.8359 110.957 86.9767 110.957 86.0723C110.957 84.9268 110.585 84.1279 109.84 83.6757C109.095 83.2084 108.224 82.9748 107.226 82.9748C105.916 82.9748 104.799 83.2763 103.875 83.8792C102.952 84.4671 102.14 85.1152 101.441 85.8236C101.381 84.7987 101.038 84.0676 100.413 83.6305C99.7875 83.1934 99.0577 82.9748 98.2237 82.9748C97.1068 82.9748 96.1313 83.1783 95.2974 83.5853C94.4634 83.9922 93.7262 84.4897 93.0858 85.0775C92.4603 85.6503 91.8795 86.1854 91.3434 86.6828C91.5221 86.2005 91.6115 85.7709 91.6115 85.3941C91.6115 84.8665 91.4625 84.4671 91.1647 84.1957C90.8817 83.9093 90.5541 83.7662 90.1818 83.7662C89.7499 83.7662 89.3106 83.9244 88.8638 84.241C88.4319 84.5575 88.0819 85.0398 87.8139 85.688C87.4862 86.4718 87.0394 87.4817 86.4735 88.7177C85.9494 89.8934 85.4051 91.1031 84.8405 92.347C84.4323 92.7232 84.0012 93.0961 83.5471 93.4658C82.8919 94.0235 82.1994 94.4907 81.4696 94.8676C80.7548 95.2444 80.0995 95.4328 79.5038 95.4328C79.1315 95.4328 78.8411 95.3725 78.6326 95.2519C78.439 95.1163 78.3422 94.845 78.3422 94.438C78.3422 93.9406 78.4613 93.3753 78.6996 92.7422C78.9379 92.0941 79.2134 91.4535 79.5262 90.8204C79.8389 90.1873 80.0995 89.6522 80.308 89.2151C80.5612 88.6876 80.8069 88.1675 81.0452 87.655C81.2835 87.1275 81.5664 86.5622 81.8941 85.9593C81.9685 85.8236 82.0132 85.688 82.0281 85.5523C82.0579 85.4167 82.0802 85.281 82.0951 85.1453C82.0951 84.5726 81.8866 84.1053 81.4696 83.7435C81.0675 83.3667 80.5835 83.1783 80.0176 83.1783C79.6751 83.1783 79.34 83.2687 79.0124 83.4496C78.6847 83.6305 78.3943 83.932 78.1412 84.354L77.3816 85.9367C77.1731 86.3587 76.9721 86.7733 76.7785 87.1802C76.5998 87.5872 76.4732 87.8887 76.3987 88.0846C76.1604 88.6876 75.8328 89.396 75.4158 90.2099C75.0137 91.0088 74.6414 91.868 74.2989 92.7875C73.9712 93.6919 73.8074 94.6038 73.8074 95.5233C73.8074 96.8497 74.15 97.8295 74.835 98.4625ZM116.787 92.3127C117.755 91.8002 118.738 91.2048 119.736 90.5265C120.749 89.8331 121.516 89.3282 122.037 89.0116C122.737 88.5594 123.199 88.16 123.422 87.8133C123.675 87.4365 123.802 87.1199 123.802 86.8637C123.802 86.6376 123.727 86.4567 123.578 86.3211C123.444 86.1854 123.288 86.1025 123.109 86.0723L122.908 86.0497H122.707C121.888 86.0497 121.128 86.2909 120.429 86.7733C119.743 87.2405 119.163 87.8284 118.686 88.5368C118.18 89.2754 117.77 89.9688 117.457 90.6169C117.16 91.2651 116.936 91.8303 116.787 92.3127Z" fill="url(#paint7_linear_74_3697)"/>
<path fill-rule="evenodd" clip-rule="evenodd" d="M45.8839 97.0607C46.6732 97.8144 47.5891 98.1912 48.6316 98.1912C49.7038 98.1912 50.7314 97.8521 51.7143 97.1738C53.7888 95.7636 55.5456 93.3456 56.8746 91.2274C57.0876 90.8879 57.2913 90.556 57.4891 90.2337L57.4898 90.2325C57.9034 89.5587 58.2914 88.9266 58.684 88.3559C59.2797 87.5118 59.7712 86.7054 60.1584 85.9367C60.5456 85.168 60.7392 84.3615 60.7392 83.5174C60.7392 82.9597 60.6126 82.4849 60.3594 82.093C60.1063 81.686 59.6744 81.4826 59.0638 81.4826C58.5426 81.4826 58.0213 81.8669 57.5001 82.6357C56.9788 83.3893 56.4502 84.3012 55.914 85.3714C55.363 86.4567 54.7673 87.5947 54.1269 88.7855C53.5014 89.9612 52.8313 90.9259 52.1164 91.6796C51.5505 92.4483 51.0293 93.0512 50.5527 93.4884C50.0761 93.9255 49.6443 94.1441 49.2571 94.1441C49.0784 94.1441 48.9369 93.9556 48.8326 93.5788C48.7284 93.1869 48.6763 92.8779 48.6763 92.6518C48.6763 91.7323 48.8326 90.7074 49.1454 89.5769C49.4581 88.4464 49.8155 87.3084 50.2176 86.1628C50.6346 85.0022 50.992 83.932 51.2899 82.9522C51.3495 82.8467 51.3792 82.7035 51.3792 82.5226C51.3792 82.1307 51.1931 81.8066 50.8208 81.5504C50.4485 81.2941 50.0687 81.166 49.6815 81.166C49.2496 81.166 48.8028 81.3092 48.3412 81.5956C47.8944 81.8669 47.5221 82.3191 47.2242 82.9522C47.0008 83.6305 46.6881 84.5952 46.286 85.8463C45.8839 87.0823 45.519 88.4087 45.1914 89.8256C45.124 90.1139 45.0636 90.3977 45.0101 90.677C44.9128 90.7358 44.8095 90.7987 44.6999 90.8656C43.9106 91.348 42.965 91.8605 41.8629 92.4031C40.7609 92.9608 39.6141 93.4582 38.4227 93.8953C37.2313 94.3174 36.1218 94.5284 35.0943 94.5284C33.7688 94.5284 33.0242 94.0612 32.8604 93.1266C34.8858 92.373 36.5686 91.6268 37.9089 90.8882C39.2642 90.1346 40.3439 89.396 41.1481 88.6725C41.9523 87.964 42.5182 87.2631 42.8458 86.5698C43.1735 85.8764 43.3373 85.2132 43.3373 84.5801C43.3373 83.5099 43.032 82.6733 42.4214 82.0704C41.8108 81.4675 40.8875 81.166 39.6514 81.166C37.9387 81.166 36.3527 81.5353 34.8932 82.2739C33.4486 82.9974 32.2051 83.9169 31.1626 85.0323C30.1202 86.1477 29.316 87.3159 28.75 88.5368C28.199 89.7427 27.9235 90.8355 27.9235 91.8152C27.9235 92.9307 28.1394 93.9782 28.5713 94.958C29.0181 95.9227 29.6585 96.7065 30.4925 97.3094C31.3413 97.8973 32.3615 98.1912 33.5529 98.1912C35.0868 98.1912 36.658 97.8973 38.2664 97.3094C39.8748 96.7216 41.3342 96.0584 42.6448 95.3198C43.3622 94.9063 44.0497 94.4827 44.7071 94.0489C44.7636 95.3478 45.1559 96.3517 45.8839 97.0607ZM32.5253 90.5265C33.4933 90.014 34.4762 89.4186 35.474 88.7403C36.4867 88.0469 37.2537 87.542 37.7749 87.2254C38.4749 86.7733 38.9365 86.3738 39.1599 86.0271C39.4131 85.6503 39.5397 85.3338 39.5397 85.0775C39.5397 84.8514 39.4652 84.6705 39.3163 84.5349C39.1823 84.3992 39.0259 84.3163 38.8472 84.2862L38.6461 84.2636H38.4451C37.626 84.2636 36.8665 84.5047 36.1665 84.9871C35.4815 85.4544 34.9007 86.0422 34.4241 86.7506C33.9177 87.4892 33.5082 88.1826 33.1955 88.8307C32.8976 89.4789 32.6742 90.0441 32.5253 90.5265Z" fill="url(#paint8_linear_74_3697)"/>
</g>
<defs>
<linearGradient id="paint0_linear_74_3697" x1="46" y1="-8.83883e-07" x2="100" y2="100" gradientUnits="userSpaceOnUse">
<stop stop-color="#4C79FF"/>
<stop offset="1" stop-color="#023E99"/>
</linearGradient>
<linearGradient id="paint1_linear_74_3697" x1="46" y1="-8.83883e-07" x2="100" y2="100" gradientUnits="userSpaceOnUse">
<stop stop-color="#4C79FF"/>
<stop offset="1" stop-color="#023E99"/>
</linearGradient>
<linearGradient id="paint2_linear_74_3697" x1="46" y1="-8.83883e-07" x2="100" y2="100" gradientUnits="userSpaceOnUse">
<stop stop-color="#4C79FF"/>
<stop offset="1" stop-color="#023E99"/>
</linearGradient>
<linearGradient id="paint3_linear_74_3697" x1="46" y1="-8.83883e-07" x2="100" y2="100" gradientUnits="userSpaceOnUse">
<stop stop-color="#4C79FF"/>
<stop offset="1" stop-color="#023E99"/>
</linearGradient>
<linearGradient id="paint4_linear_74_3697" x1="46" y1="-8.83883e-07" x2="100" y2="100" gradientUnits="userSpaceOnUse">
<stop stop-color="#4C79FF"/>
<stop offset="1" stop-color="#023E99"/>
</linearGradient>
<linearGradient id="paint5_linear_74_3697" x1="46" y1="-8.83883e-07" x2="100" y2="100" gradientUnits="userSpaceOnUse">
<stop stop-color="#4C79FF"/>
<stop offset="1" stop-color="#023E99"/>
</linearGradient>
<linearGradient id="paint6_linear_74_3697" x1="46" y1="-8.83883e-07" x2="100" y2="100" gradientUnits="userSpaceOnUse">
<stop stop-color="#4C79FF"/>
<stop offset="1" stop-color="#023E99"/>
</linearGradient>
<linearGradient id="paint7_linear_74_3697" x1="46" y1="-8.83883e-07" x2="100" y2="100" gradientUnits="userSpaceOnUse">
<stop stop-color="#4C79FF"/>
<stop offset="1" stop-color="#023E99"/>
</linearGradient>
<linearGradient id="paint8_linear_74_3697" x1="46" y1="-8.83883e-07" x2="100" y2="100" gradientUnits="userSpaceOnUse">
<stop stop-color="#4C79FF"/>
<stop offset="1" stop-color="#023E99"/>
</linearGradient>
<clipPath id="clip0_74_3697">
<rect width="132" height="100" fill="white"/>
</clipPath>
</defs>
</svg>
